<svg version="1" xmlns="http://www.w3.org/2000/svg" width="274.667" height="274.667" viewBox="0 0 206.000000 206.000000"><path d="M82.5 8.7l.1 7.8h12.9c9.5-.1 13.1.3 13.5 1.2.7 1.8.4 147.1-.4 151.8-.3 2.2-1.8 6.4-3.4 9.4-3.8 7.5-10.5 11.3-20 11.4-3.7 0-8.5-.3-10.6-.7l-3.9-.7 3.5-3.5c4.3-4.2 5.9-9.5 4.7-16-.8-4.3-1.7-5.9-5.6-10.1-2.1-2.3-9-4.2-13.8-3.8-19.9 1.6-23.8 29.3-6 42.4 8.6 6.2 25.4 8.9 43 6.9 24.1-2.9 38.4-14.2 45.1-35.8 1.6-4.9 1.8-12.8 2-77.5.2-39.6.3-72.7.4-73.5 0-1.3 1.6-1.6 9.3-1.5 5 .1 9.7 0 10.4-.3.8-.2 1.2-2.9 1.2-7.8V1H82.5v7.7z"/></svg>